<?xml version="1.0" standalone="no"?>
<!DOCTYPE svg PUBLIC "-//W3C//DTD SVG 20010904//EN"
 "http://www.w3.org/TR/2001/REC-SVG-20010904/DTD/svg10.dtd">
<svg version="1.0" xmlns="http://www.w3.org/2000/svg"
 width="1130.000000pt" height="221.000000pt" viewBox="0 0 1130.000000 221.000000"
 preserveAspectRatio="xMidYMid meet">

<g transform="translate(0.000000,221.000000) scale(0.100000,-0.100000)"
fill="#000000" stroke="none">
<path d="M10950 1731 c-57 -30 -65 -85 -17 -115 20 -13 40 9 32 33 -9 22 15
41 51 41 43 0 46 -27 8 -61 -75 -67 -75 -68 -72 -107 3 -32 6 -37 28 -37 19 0
26 6 28 24 2 14 28 47 58 76 64 61 70 91 25 136 -35 35 -88 39 -141 10z"/>
<path d="M8374 1639 c-15 -17 -19 -35 -18 -88 1 -67 29 -161 50 -168 24 -8 44
28 44 76 0 26 5 74 11 106 10 56 10 60 -11 77 -29 24 -53 23 -76 -3z"/>
<path d="M2969 1510 c-25 -24 -30 -37 -27 -67 3 -33 6 -38 27 -38 19 0 27 7
33 32 9 35 50 55 70 35 16 -16 3 -39 -41 -69 -45 -32 -66 -75 -50 -104 14 -26
38 -24 49 6 5 13 32 46 60 73 60 58 65 89 21 133 -42 41 -101 41 -142 -1z"/>
<path d="M546 1501 c-13 -15 -17 -38 -18 -103 -1 -110 5 -128 42 -128 35 0 36
4 45 131 5 72 3 89 -10 103 -21 21 -38 20 -59 -3z"/>
<path d="M8670 1443 c-111 -126 -230 -364 -286 -570 -2 -8 -19 -13 -39 -13
-40 0 -75 -15 -75 -32 0 -7 18 -9 56 -5 l55 6 -3 -37 c-2 -29 -8 -37 -27 -42
-35 -8 -39 -30 -6 -30 21 0 29 -8 42 -37 10 -26 12 -38 4 -41 -6 -2 -11 -10
-11 -18 0 -13 18 -19 48 -15 7 1 44 -14 83 -33 39 -20 86 -38 105 -42 19 -3
34 -11 34 -16 0 -20 -63 -89 -103 -113 -90 -52 -176 -50 -231 4 -26 26 -31 41
-36 96 -3 36 -2 69 3 74 5 5 9 26 9 47 0 67 -71 96 -143 58 -39 -19 -64 -76
-49 -105 7 -11 13 -58 14 -105 5 -132 51 -209 160 -267 32 -17 59 -21 126 -22
47 0 98 4 114 8 26 7 28 6 22 -15 -3 -13 -9 -58 -13 -100 -5 -65 -3 -78 9 -78
11 0 17 22 25 83 7 46 19 100 29 120 10 20 14 40 11 44 -4 3 -32 -1 -63 -11
-92 -29 -151 -31 -218 -7 -110 38 -165 119 -173 255 -3 45 -10 86 -15 93 -10
13 -2 53 11 53 15 0 31 -27 26 -42 -8 -21 41 -33 62 -16 13 11 12 14 -6 30
-12 9 -28 15 -35 12 -14 -5 -29 32 -20 48 10 16 32 8 38 -14 l6 -23 14 24 c7
13 16 20 18 15 11 -19 19 -72 11 -77 -7 -5 -9 -50 -5 -129 3 -37 64 -104 109
-119 48 -15 130 -6 184 21 24 12 64 44 89 70 l46 48 119 -14 c74 -8 161 -11
228 -7 84 5 107 3 107 -7 0 -46 111 -125 192 -136 84 -12 176 35 214 108 22
43 20 121 -5 168 -25 48 -27 78 -6 86 8 4 15 12 15 20 0 19 16 18 24 -1 7 -19
26 -19 26 0 0 24 17 17 33 -14 12 -24 12 -32 -1 -56 -11 -22 -13 -48 -7 -121
12 -158 -27 -262 -115 -306 -62 -32 -185 -18 -255 29 -19 13 -75 18 -75 7 0
-3 9 -19 20 -34 21 -30 40 -109 40 -166 0 -27 4 -34 20 -34 25 0 26 37 6 123
-16 67 -27 64 91 30 54 -15 69 -16 110 -5 77 21 95 34 138 95 l40 59 3 151 c2
89 8 157 14 165 16 19 12 71 -8 93 -26 28 -79 34 -124 14 -22 -10 -47 -14 -59
-10 -20 6 -23 17 -21 73 0 4 22 7 48 7 35 0 47 4 47 15 0 10 -17 18 -52 24
l-52 9 -12 51 c-6 28 -27 85 -46 126 -32 67 -36 87 -43 195 -9 151 -23 202
-59 210 -29 6 -163 -25 -213 -51 -18 -9 -45 -27 -59 -41 -24 -22 -32 -24 -83
-18 -48 6 -59 12 -83 43 -15 20 -37 54 -48 77 -16 32 -26 41 -51 43 -25 2 -37
-4 -64 -35z m86 -30 c9 -20 27 -51 40 -69 l25 -32 -48 -7 c-59 -9 -103 -31
-103 -51 0 -12 6 -15 23 -10 114 33 147 38 227 34 69 -3 98 -10 143 -32 61
-29 90 -27 61 5 -16 18 -15 19 10 29 47 18 55 14 49 -25 -5 -30 -3 -35 14 -35
17 0 21 8 26 47 7 68 -8 73 -110 37 -40 -15 -83 -12 -83 5 0 11 97 57 151 71
97 25 106 13 108 -140 1 -93 18 -173 45 -214 13 -21 48 -119 59 -166 5 -22 1
-27 -34 -42 -25 -10 -39 -22 -36 -30 4 -14 16 -14 55 -2 19 6 22 3 22 -25 0
-30 -1 -31 -45 -31 -59 0 -63 -25 -5 -35 35 -6 39 -9 30 -26 -9 -16 -18 -18
-50 -13 -43 7 -49 0 -24 -27 15 -16 13 -19 -25 -38 -130 -67 -408 -86 -590
-42 -51 13 -118 34 -149 48 -51 22 -53 25 -38 42 33 36 14 53 -28 25 -23 -14
-25 -14 -40 8 -26 37 -20 48 24 48 29 0 40 4 40 15 0 11 -11 15 -38 15 -47 0
-50 2 -44 41 3 23 8 29 21 23 9 -3 27 -9 40 -12 35 -7 23 19 -17 38 -21 10
-32 22 -32 37 0 32 57 187 102 278 65 129 177 295 199 295 6 0 17 -17 25 -37z
m724 -767 c0 -19 4 -37 8 -40 5 -3 14 -30 21 -61 12 -52 11 -59 -11 -103 -27
-55 -88 -92 -153 -92 -78 0 -167 61 -194 133 -9 23 -7 25 46 37 30 6 83 27
117 44 48 25 68 31 86 24 33 -12 52 8 26 28 -27 20 -7 64 29 64 22 0 25 -4 25
-34z"/>
<path d="M8797 899 c-10 -6 -39 -9 -65 -7 -36 2 -47 0 -47 -11 0 -35 135 -32
148 3 10 25 -7 32 -36 15z"/>
<path d="M8976 902 c-15 -25 42 -52 110 -52 37 0 44 3 44 20 0 16 -5 19 -23
15 -13 -4 -43 1 -68 9 -51 18 -56 19 -63 8z"/>
<path d="M8865 790 c-4 -6 -1 -17 5 -25 16 -19 6 -31 -30 -39 -44 -8 -27 -27
23 -26 23 0 59 -2 80 -6 41 -7 53 10 15 22 -39 11 -49 23 -35 44 6 11 9 22 5
25 -11 12 -57 15 -63 5z"/>
<path d="M10956 1444 c-9 -23 1 -34 30 -34 28 0 44 28 23 41 -22 14 -46 11
-53 -7z"/>
<path d="M2642 1412 c-21 -21 -50 -54 -65 -74 -27 -35 -29 -35 -70 -26 -23 5
-85 7 -139 4 -67 -5 -98 -3 -103 5 -14 22 -127 67 -185 74 -126 15 -153 -11
-121 -112 32 -100 28 -159 -13 -228 -41 -67 -76 -165 -76 -212 0 -34 -3 -36
-52 -47 -45 -10 -35 -36 12 -36 31 0 40 -4 40 -17 0 -10 3 -28 6 -40 4 -16 0
-23 -15 -28 -32 -10 -26 -35 7 -35 22 0 34 -9 55 -40 l26 -40 -25 0 c-19 0
-25 -5 -22 -17 2 -13 15 -19 48 -21 25 -2 72 -16 105 -31 33 -16 70 -31 82
-35 l23 -7 -25 -37 c-49 -73 -70 -156 -70 -287 0 -119 0 -120 24 -123 16 -3
35 8 62 34 22 21 39 44 39 51 0 7 -20 23 -45 35 -59 29 -61 58 -5 83 45 20 75
49 66 64 -4 5 -22 15 -41 21 -19 6 -35 17 -35 25 0 7 15 35 33 61 36 55 22 52
188 39 63 -5 124 -4 180 4 l83 13 23 -29 c30 -36 29 -44 -7 -78 -16 -15 -27
-32 -24 -37 3 -4 25 -8 50 -8 39 0 46 -3 55 -27 10 -25 7 -31 -25 -59 -20 -17
-36 -36 -36 -41 0 -5 20 -30 45 -55 31 -32 45 -54 45 -73 0 -20 4 -26 18 -23
15 3 17 16 16 99 0 112 -29 214 -81 292 -38 56 -38 57 -19 57 7 0 49 18 93 40
65 32 86 38 116 33 31 -5 37 -3 37 12 0 9 -9 19 -19 22 -18 5 -18 7 7 43 16
23 37 40 51 42 32 4 39 28 12 35 -19 5 -22 12 -19 47 l3 41 38 -3 c33 -3 38
-1 35 15 -2 13 -15 19 -42 23 l-39 5 -22 85 c-12 47 -34 112 -49 145 -21 48
-27 79 -30 145 -3 96 -30 169 -86 233 -42 48 -69 48 -118 -1z m126 -80 c23
-44 52 -143 52 -179 0 -2 -11 4 -25 13 -33 21 -51 9 -31 -21 15 -23 14 -25
-24 -55 -22 -18 -38 -36 -34 -41 3 -5 31 -9 63 -9 58 0 81 -11 81 -40 0 -10
-32 -37 -75 -64 -42 -27 -74 -53 -72 -60 2 -7 39 -12 100 -14 89 -2 97 -4 97
-22 0 -11 0 -23 1 -27 0 -3 -22 -13 -48 -22 -31 -10 -49 -23 -51 -35 -4 -19 3
-19 81 0 26 6 27 5 27 -34 l0 -41 -62 -3 c-48 -2 -63 -7 -63 -18 0 -11 13 -16
48 -18 26 -2 47 -7 47 -11 0 -4 -11 -18 -24 -30 -23 -22 -25 -22 -51 -5 -35
23 -58 4 -30 -26 21 -23 23 -21 -33 -49 -166 -84 -460 -91 -628 -15 -73 33
-70 30 -54 49 20 25 -1 39 -35 23 -25 -11 -29 -10 -51 17 -13 17 -24 33 -24
38 0 4 21 7 46 7 38 0 45 3 42 18 -2 13 -15 18 -61 20 -31 2 -57 7 -57 11 0 5
-3 23 -6 40 -5 26 -3 31 12 31 11 0 37 -9 58 -21 29 -15 41 -18 50 -9 17 17
-34 57 -83 65 -23 4 -41 11 -41 15 0 5 43 34 95 66 138 82 144 97 48 109 -97
11 -98 13 -63 68 37 58 40 132 10 228 -10 34 -17 66 -14 71 3 4 30 8 59 8 53
0 117 -19 163 -48 l23 -15 -41 -18 c-22 -10 -40 -25 -40 -34 0 -20 15 -19 86
6 65 23 236 32 307 15 29 -6 37 -5 37 5 0 8 28 45 61 82 57 63 63 67 79 52 10
-9 31 -42 48 -73z"/>
<path d="M2516 944 c-9 -24 -7 -110 4 -138 11 -29 44 -35 54 -10 10 25 7 124
-4 145 -13 23 -46 25 -54 3z"/>
<path d="M2200 924 c-29 -74 9 -179 46 -129 14 19 19 110 8 139 -10 25 -43 19
-54 -10z"/>
<path d="M2353 724 c-3 -9 -1 -25 6 -36 15 -24 11 -28 -31 -37 -39 -8 -46 -37
-8 -34 50 5 96 4 138 -2 35 -6 42 -4 42 9 0 10 -9 16 -23 16 -13 0 -32 6 -43
14 -18 14 -18 15 0 29 10 7 17 22 15 33 -6 26 -86 34 -96 8z"/>
<path d="M875 1418 c-63 -32 -105 -77 -141 -153 -19 -38 -34 -75 -34 -82 0 -7
-6 -13 -13 -13 -22 0 -114 -88 -132 -126 -22 -47 -23 -141 -1 -213 20 -66 20
-108 1 -186 -8 -33 -15 -96 -15 -139 0 -111 32 -173 115 -221 16 -10 16 -12
-1 -48 l-18 -37 -20 38 c-12 20 -36 44 -53 53 -18 9 -51 32 -73 52 -45 41 -77
53 -117 42 -16 -5 -53 -8 -82 -9 -51 -1 -57 -4 -78 -35 -12 -18 -23 -48 -23
-65 0 -17 -3 -54 -6 -83 -5 -44 -3 -54 15 -70 12 -9 21 -27 21 -39 0 -13 12
-36 26 -53 19 -24 34 -31 60 -31 43 0 44 13 2 25 -17 6 -37 20 -45 31 -12 19
-12 24 2 37 22 23 18 37 -10 37 -53 0 -59 101 -7 108 27 4 29 32 2 39 -25 7
-25 24 -1 54 18 22 22 23 62 12 27 -7 50 -8 61 -2 32 17 61 9 100 -31 22 -22
46 -40 53 -40 24 0 64 -41 76 -77 6 -20 14 -70 18 -112 5 -58 10 -76 21 -76
12 0 16 19 21 85 4 52 14 103 26 130 l20 45 29 -54 c58 -107 104 -141 190
-141 60 0 76 59 44 152 -20 57 -22 75 -16 188 7 130 1 166 -49 300 -9 25 -23
104 -30 176 -16 161 -35 210 -98 255 -52 36 -52 39 7 144 43 78 102 117 186
123 55 4 59 2 98 -32 22 -20 45 -49 51 -64 7 -16 25 -36 42 -46 43 -26 56 -51
90 -177 37 -137 51 -161 128 -224 76 -60 104 -115 105 -200 1 -100 -35 -135
-104 -100 -31 16 -41 45 -16 45 28 0 76 50 76 79 0 48 -40 75 -118 79 -58 3
-72 0 -102 -20 -63 -43 -50 -113 26 -138 40 -14 45 -43 14 -82 -28 -36 -72
-51 -130 -46 -56 6 -83 25 -132 97 -22 31 -33 40 -39 30 -19 -31 79 -149 142
-171 25 -9 29 -15 29 -46 0 -21 9 -73 19 -117 11 -44 23 -93 26 -108 4 -21 16
-33 43 -44 20 -8 54 -31 75 -49 43 -39 75 -43 126 -16 58 31 71 70 65 186 -3
56 -1 119 4 141 l9 40 41 -85 c46 -96 70 -181 79 -276 5 -54 9 -64 24 -64 63
0 -42 370 -131 458 -37 37 -38 49 -12 99 42 81 19 241 -41 292 -11 8 -17 29
-17 55 0 65 -28 179 -50 206 -11 14 -34 46 -51 73 -29 44 -65 67 -87 53 -6 -3
-17 5 -26 18 -8 14 -25 27 -36 31 -11 4 -27 21 -36 38 -21 41 -62 85 -96 103
-40 21 -135 17 -183 -8z m430 -247 c7 -15 27 -42 43 -59 30 -32 52 -110 52
-181 l-1 -36 -38 41 c-39 41 -77 136 -96 237 -6 32 -5 36 9 31 9 -4 23 -19 31
-33z m-539 -65 c48 -41 62 -82 70 -198 7 -104 29 -208 56 -267 19 -40 23 -71
28 -226 3 -114 10 -188 18 -202 18 -32 16 -102 -4 -110 -26 -10 -91 16 -114
45 -12 15 -36 51 -53 81 -24 41 -47 63 -91 90 -101 61 -124 132 -91 286 19 89
19 178 0 241 -8 27 -15 75 -15 106 0 49 5 62 33 100 33 43 90 88 112 88 6 0
29 -15 51 -34z m570 -557 c3 -6 22 -18 41 -26 34 -14 34 -15 18 -33 -20 -23
-114 -60 -150 -60 -36 0 -39 16 -5 30 36 15 70 55 70 81 0 21 15 25 26 8z
m114 -211 c0 -79 0 -156 1 -172 1 -22 -7 -37 -30 -58 -40 -36 -73 -36 -112 2
-17 16 -46 34 -65 40 -25 9 -35 19 -39 38 -3 15 -12 56 -21 92 -9 36 -19 80
-21 97 l-5 33 60 -6 c68 -7 141 13 189 52 15 13 31 23 36 24 4 0 7 -64 7 -142z"/>
<path d="M10444 1421 c-26 -16 -33 -17 -49 -5 -10 8 -36 14 -57 14 -87 0 -149
-54 -168 -143 -15 -75 -48 -105 -131 -118 -70 -10 -109 -40 -109 -83 0 -12 -5
-27 -11 -33 -5 -5 -13 -35 -16 -65 -5 -48 -3 -58 16 -77 12 -12 35 -24 51 -28
34 -6 36 -16 15 -66 -18 -43 -19 -87 -4 -121 12 -25 63 -56 93 -56 10 0 16 -9
16 -23 0 -12 7 -32 15 -44 17 -25 15 -27 -65 -67 -72 -37 -108 -72 -120 -117
-17 -62 11 -156 66 -222 16 -19 24 -41 24 -66 0 -62 18 -101 46 -101 28 0 29
7 9 34 -8 11 -15 35 -15 53 0 30 3 33 30 33 38 0 86 24 100 49 17 33 11 58
-25 105 -38 50 -43 71 -20 80 12 4 14 14 10 40 -9 43 13 86 61 122 29 23 39
26 52 16 46 -32 82 -45 137 -50 130 -11 165 1 193 68 16 36 18 37 57 33 22 -3
52 -8 66 -13 14 -4 46 -4 70 1 24 4 47 8 51 9 5 0 26 16 47 36 81 73 95 201
32 289 -18 25 -31 51 -28 58 2 7 8 3 16 -11 13 -25 31 -29 31 -8 0 8 8 13 18
12 13 -1 16 5 14 24 -3 23 0 22 36 -16 52 -53 72 -123 72 -246 0 -81 -4 -100
-28 -153 -34 -71 -95 -130 -151 -145 -22 -6 -43 -15 -46 -19 -11 -19 8 -39 45
-45 69 -11 124 -98 100 -160 -14 -38 -13 -56 4 -56 8 0 27 -11 43 -24 23 -20
27 -31 25 -70 l-2 -46 43 0 c23 0 51 7 61 15 11 8 32 15 46 15 48 0 58 24 58
137 0 87 -2 106 -19 128 -11 14 -30 25 -43 25 -15 0 -25 9 -33 30 -10 27 -15
30 -57 30 -36 0 -52 -6 -78 -29 l-33 -29 -38 33 c-38 33 -45 45 -26 45 29 0
97 72 130 136 33 67 34 71 34 191 0 116 1 123 23 138 35 25 52 69 52 135 0 66
-17 113 -55 154 -12 13 -25 44 -29 68 -8 53 -36 101 -73 125 -23 15 -45 18
-139 15 -108 -3 -112 -2 -127 22 -22 33 -78 51 -118 37 -25 -8 -36 -8 -52 4
-30 21 -106 19 -143 -4z m146 -36 c17 -15 20 -15 44 0 27 18 59 14 88 -12 15
-14 13 -19 -38 -68 -30 -29 -54 -60 -54 -69 0 -31 19 -25 51 15 46 59 94 77
203 77 59 1 99 -4 118 -14 39 -20 61 -68 55 -116 -5 -34 -2 -40 18 -48 34 -13
75 -88 75 -139 0 -47 -19 -99 -43 -119 -13 -12 -18 -8 -35 30 -20 47 -79 105
-115 113 -40 10 -81 -9 -102 -47 l-19 -36 39 -63 c33 -53 40 -73 40 -114 -1
-57 -29 -115 -56 -115 -10 0 -27 12 -38 26 -16 21 -26 25 -49 19 -21 -4 -36 0
-56 16 -23 18 -27 28 -24 63 3 39 2 41 -27 44 -73 9 -75 57 -4 121 38 35 51
55 56 83 8 52 -3 88 -27 88 -17 0 -18 -3 -9 -30 16 -44 -4 -92 -51 -125 -44
-31 -64 -70 -54 -109 7 -30 39 -56 67 -56 13 0 17 -5 13 -16 -11 -29 21 -84
58 -99 20 -9 40 -14 45 -13 9 3 11 -2 11 -22 0 -5 -14 -17 -32 -26 -31 -16
-67 -15 -140 2 -24 5 -28 3 -28 -15 0 -30 -26 -78 -49 -90 -45 -25 -214 4
-236 39 -3 5 -33 10 -66 10 -46 0 -63 4 -79 20 -27 27 -25 41 11 69 l30 24 27
-26 c36 -35 96 -59 127 -51 36 9 32 34 -5 34 -39 0 -82 22 -109 56 -27 34 -27
54 -1 54 29 0 76 26 84 45 13 34 6 85 -14 105 -76 76 -230 38 -230 -57 0 -39
33 -78 74 -89 22 -5 25 -10 20 -28 -11 -36 -25 -46 -65 -46 -71 0 -96 50 -64
127 8 19 15 48 15 64 0 54 16 77 62 90 119 32 145 57 163 161 17 97 44 151 89
172 18 9 41 16 49 16 9 0 24 17 34 37 10 21 29 44 43 51 30 15 86 9 110 -13z
m-196 -4 c11 -16 -6 -41 -27 -41 -59 0 -129 -103 -141 -208 -3 -29 -12 -61
-18 -72 -14 -21 -66 -50 -92 -50 -33 0 -86 -34 -101 -67 -18 -37 -30 -40 -63
-17 -28 19 -29 65 -3 108 19 30 21 36 21 55 0 21 33 39 82 46 91 12 138 55
154 140 8 47 38 93 68 105 28 12 113 12 120 1z m530 -397 c3 -8 2 -12 -4 -9
-6 3 -10 10 -10 16 0 14 7 11 14 -7z m-103 -368 c-27 -12 -38 -1 -21 19 10 12
16 13 27 3 13 -11 12 -14 -6 -22z m-718 -187 c-13 -40 -23 -79 -23 -88 0 -9
16 -40 35 -68 35 -52 44 -83 25 -83 -6 0 -13 7 -16 15 -4 8 -13 15 -21 15 -12
0 -14 -7 -9 -32 6 -32 6 -33 -9 -10 -18 24 -40 29 -48 10 -9 -22 -45 32 -66
97 -22 69 -18 105 13 134 20 19 124 80 137 81 3 0 -5 -32 -18 -71z m1045 -114
c5 -40 17 -51 38 -34 14 12 19 10 35 -10 25 -31 24 -66 -3 -85 l-22 -16 22
-20 c24 -23 29 -59 10 -78 -7 -7 -26 -12 -44 -12 -17 0 -37 -7 -44 -15 -22
-26 -37 -17 -43 27 -4 32 -14 51 -39 73 l-34 30 8 65 c7 52 14 70 34 88 38 33
78 27 82 -13z"/>
<path d="M10315 1121 c-9 -30 4 -63 23 -59 12 2 17 14 17 38 0 40 -29 55 -40
21z"/>
<path d="M10555 1129 c-12 -19 4 -59 25 -59 25 0 33 15 26 46 -7 25 -39 34
-51 13z"/>
<path d="M8395 1350 c-3 -6 -3 -19 0 -31 10 -31 49 -21 53 14 3 23 0 27 -22
27 -14 0 -28 -5 -31 -10z"/>
<path d="M2980 1255 c-10 -13 -9 -19 6 -36 21 -23 57 -22 62 2 3 19 -23 49
-42 49 -8 0 -19 -7 -26 -15z"/>
<path d="M544 1236 c-10 -26 4 -48 28 -44 17 2 23 10 23 28 0 18 -6 26 -23 28
-13 2 -25 -3 -28 -12z"/>
<path d="M942 1028 c-26 -26 -10 -78 24 -78 20 0 24 5 24 33 0 30 -14 57 -30
57 -3 0 -11 -5 -18 -12z"/>
<path d="M1174 1005 c-6 -24 9 -55 27 -55 14 0 30 40 24 60 -9 29 -43 25 -51
-5z"/>
<path d="M3056 929 c-36 -29 -33 -60 14 -113 43 -51 55 -91 54 -178 -2 -82
-38 -150 -118 -221 -81 -72 -115 -147 -123 -278 -7 -104 0 -139 27 -139 13 0
20 7 20 19 0 18 4 18 38 9 20 -5 41 -14 46 -19 6 -5 18 -9 27 -9 15 0 15 6 7
47 -8 33 -7 62 2 101 11 49 22 66 100 147 96 101 120 148 142 276 9 53 9 82 0
127 -26 124 -118 252 -182 252 -15 0 -39 -9 -54 -21z m89 -34 l30 -24 -52 -1
c-40 0 -53 4 -53 15 0 12 25 34 40 35 3 0 19 -11 35 -25z m102 -172 c11 -54
12 -52 -33 -72 l-40 -18 -10 63 -9 64 42 0 c41 0 42 -1 50 -37z m-3 -195 c-3
-18 -16 -54 -28 -80 l-21 -48 -40 34 c-40 34 -40 34 -23 63 10 16 34 35 60 45
59 23 61 23 52 -14z m-164 -181 c16 -12 29 -24 29 -28 1 -3 -14 -20 -33 -38
l-34 -33 -41 21 c-22 12 -41 26 -41 31 0 5 14 25 31 45 34 39 43 39 89 2z
m-60 -159 c-1 -37 -16 -61 -51 -78 -21 -11 -41 -20 -44 -20 -8 0 -6 73 3 87 4
6 23 13 42 16 19 2 38 5 43 5 4 1 7 -4 7 -10z"/>
<path d="M9530 640 c0 -18 5 -21 33 -18 20 2 32 8 32 18 0 10 -12 16 -32 18
-28 3 -33 0 -33 -18z"/>
<path d="M395 327 c-18 -14 -12 -42 13 -52 20 -8 45 17 37 37 -9 23 -30 29
-50 15z"/>
<path d="M290 315 c-7 -8 -10 -22 -6 -30 7 -20 42 -19 50 1 8 22 8 22 -13 33
-14 8 -22 7 -31 -4z"/>
<path d="M2335 285 c-45 -23 -92 -81 -110 -136 -20 -59 -17 -143 6 -147 12 -2
15 7 15 46 0 68 28 134 75 176 34 31 46 36 88 36 38 0 56 -6 79 -25 47 -39 72
-101 72 -174 0 -54 2 -62 18 -59 14 3 17 15 16 74 0 84 -29 151 -81 191 -44
34 -132 43 -178 18z"/>
<path d="M8805 284 c-65 -34 -113 -97 -139 -184 -22 -72 -21 -100 3 -100 14 0
20 10 24 45 4 25 18 66 31 92 69 135 188 166 278 72 39 -41 78 -131 78 -179 0
-24 4 -30 21 -30 19 0 20 4 14 53 -13 99 -63 183 -130 223 -50 29 -133 33
-180 8z"/>
<path d="M361 216 c-12 -13 -24 -39 -27 -58 -13 -79 88 -130 151 -75 15 13 28
37 31 58 5 28 1 41 -21 67 -22 27 -34 32 -69 32 -32 0 -48 -6 -65 -24z"/>
<path d="M244 206 c-8 -21 3 -36 27 -36 15 0 20 6 17 22 -4 27 -35 37 -44 14z"/>
</g>
</svg>
