<svg width="10" height="10" viewBox="0 0 10 10" fill="none" xmlns="http://www.w3.org/2000/svg">
<path id="Vector" d="M5 5.83054L1.0018 9.82872C0.892682 9.93785 0.755523 9.99368 0.59032 9.9962C0.42513 9.99873 0.28545 9.94291 0.171278 9.82872C0.0570925 9.71455 0 9.57613 0 9.41346C0 9.2508 0.0570925 9.11238 0.171278 8.9982L4.16946 5L0.171278 1.0018C0.0621496 0.892681 0.00632452 0.755523 0.00380254 0.59032C0.00126742 0.425131 0.0570925 0.28545 0.171278 0.171278C0.28545 0.0570925 0.42387 0 0.586537 0C0.749205 0 0.887625 0.0570925 1.0018 0.171278L5 4.16946L8.9982 0.171278C9.10732 0.0621496 9.24448 0.00632452 9.40968 0.00380254C9.57487 0.00126742 9.71455 0.0570925 9.82872 0.171278C9.94291 0.28545 10 0.423869 10 0.586537C10 0.749205 9.94291 0.887624 9.82872 1.0018L5.83054 5L9.82872 8.9982C9.93785 9.10732 9.99368 9.24448 9.9962 9.40968C9.99873 9.57487 9.94291 9.71455 9.82872 9.82872C9.71455 9.94291 9.57613 10 9.41346 10C9.2508 10 9.11238 9.94291 8.9982 9.82872L5 5.83054Z" fill="#515151"/>
</svg>
